<!--Generated by EdrawMax, SVG Export logo.svg 页-1-->
<svg height="510" width="510" xmlns="http://www.w3.org/2000/svg" viewBox="0 0 510 510" xmlns:xlink="http://www.w3.org/1999/xlink" xmlns:ed="https://www.edrawsoft.cn/xml/2017/SVGExtensions/" xmlns:ev="http://www.w3.org/2001/xml-events"><defs><linearGradient x2="100%" id="lg1" y1="0%" y2="0%" x1="0%"><stop offset="0.00" stop-color="#3dac9e"/><stop offset="1.00" stop-color="#f7b651"/></linearGradient><linearGradient x2="100%" id="lg2" y1="0%" y2="0%" x1="0%"><stop offset="0.00" stop-color="#eb6461"/><stop offset="1.00" stop-color="#efd963"/></linearGradient><linearGradient x2="100%" id="lg3" y1="0%" y2="0%" x1="0%"><stop offset="0.00" stop-color="#6781d3"/><stop offset="1.00" stop-color="#d875a4"/></linearGradient><linearGradient x2="100%" id="lg4" y1="0%" y2="0%" x1="0%"><stop offset="0.00" stop-color="#59a9d5"/><stop offset="1.00" stop-color="#6cc2a2"/></linearGradient><linearGradient x2="100%" id="lg5" y1="0%" y2="0%" x1="0%"><stop offset="0.00" stop-color="#3dac9e"/><stop offset="1.00" stop-color="#a7b268"/></linearGradient></defs><g transform="translate(5.5,5.5)" ed:name="页-1" id="page1"><rect height="500" width="500" x="0" y="0" fill="none"/><g transform="matrix(0.707107,0.707107,-0.707107,0.707107,249.118339,-63.853395)" id="group1"><path d="M36.9,73.8L408.2,73.8L408.2,73.8C428.6,73.8,445.1,57.3,445.1,36.9C445.1,16.5,428.6,.0,408.2,.0L36.9,.0L36.9,.0C16.5,.0,.0,16.5,.0,36.9C.0,57.3,16.5,73.8,36.9,73.8z" fill-rule="nonzero" transform="translate(0.000151,258.188592)" id="shape2" fill="url(#lg1)"/><path d="M3.7,7.4L367.2,7.4L367.2,7.4C369.3,7.4,370.9,5.7,370.9,3.7C370.9,1.7,369.3,.0,367.2,.0L3.7,.0L3.7,.0C1.7,.0,.0,1.7,.0,3.7C.0,5.7,1.7,7.4,3.7,7.4z" fill-rule="nonzero" transform="translate(37.091272,291.384311)" id="shape3" fill="#ffffff"/><path d="M37.1,74.2L405.5,74.2L405.5,74.2C426.0,74.2,442.6,57.6,442.6,37.1C442.6,16.6,426.0,.0,405.5,.0L37.1,.0L37.1,.0C16.6,.0,.0,16.6,.0,37.1C.0,57.6,16.6,74.2,37.1,74.2z" fill-rule="nonzero" transform="matrix(0.000000,1.000000,-1.000000,0.000000,333.826962,0.000000)" id="shape4" fill="url(#lg2)"/><path d="M3.7,7.4L365.1,7.4L365.1,7.4C367.2,7.4,368.8,5.8,368.8,3.7C368.8,1.7,367.2,.0,365.1,.0L3.7,.0L3.7,.0C1.7,.0,.0,1.7,.0,3.7C.0,5.8,1.7,7.4,3.7,7.4z" fill-rule="nonzero" transform="matrix(0.000000,1.000000,-1.000000,0.000000,300.444247,36.883840)" id="shape5" fill="#ffffff"/><path d="M36.9,73.8L408.2,73.8L408.2,73.8C428.6,73.8,445.1,57.3,445.1,36.9C445.1,16.5,428.6,.0,408.2,.0L36.9,.0L36.9,.0C16.5,.0,.0,16.5,.0,36.9C.0,57.3,16.5,73.8,36.9,73.8z" fill-rule="nonzero" transform="translate(0.000000,110.652178)" id="shape6" fill="url(#lg3)"/><path d="M3.7,7.4L367.2,7.4L367.2,7.4C369.3,7.4,370.9,5.7,370.9,3.7C370.9,1.7,369.3,.0,367.2,.0L3.7,.0L3.7,.0C1.7,.0,.0,1.7,.0,3.7C.0,5.7,1.7,7.4,3.7,7.4z" fill-rule="nonzero" transform="translate(37.091272,143.847874)" id="shape7" fill="#ffffff"/><path d="M37.1,74.2L405.5,74.2L405.5,74.2C426.0,74.2,442.6,57.6,442.6,37.1C442.6,16.6,426.0,.0,405.5,.0L37.1,.0L37.1,.0C16.6,.0,.0,16.6,.0,37.1C.0,57.6,16.6,74.2,37.1,74.2z" fill-rule="nonzero" transform="matrix(0.000000,1.000000,-1.000000,0.000000,185.459434,0.000000)" id="shape8" fill="url(#lg4)"/><path d="M3.7,7.4L365.1,7.4L365.1,7.4C367.2,7.4,368.8,5.8,368.8,3.7C368.8,1.7,367.2,.0,365.1,.0L3.7,.0L3.7,.0C1.7,.0,.0,1.7,.0,3.7C.0,5.8,1.7,7.4,3.7,7.4z" fill-rule="nonzero" transform="matrix(0.000000,1.000000,-1.000000,0.000000,152.076716,36.883959)" id="shape9" fill="#ffffff"/><path d="M.0,36.9C.0,16.5,16.6,.0,37.1,.0L259.6,.0L259.6,73.8L37.1,73.8C16.6,73.8,.0,57.3,.0,36.9z" fill-rule="nonzero" transform="translate(0.000000,258.188592)" id="shape10" fill="url(#lg5)"/><path d="M3.7,7.4L218.8,7.4L218.8,7.4C220.9,7.4,222.6,5.7,222.6,3.7C222.6,1.7,220.9,.0,218.8,.0L3.7,.0L3.7,.0C1.7,.0,.0,1.7,.0,3.7C.0,5.7,1.7,7.4,3.7,7.4zM222.6,7.4L222.6,.0L140.9,.0L140.9,7.4L222.6,7.4z" fill-rule="nonzero" transform="translate(37.091762,291.384311)" id="shape11" fill="#ffffff"/><path d="M7.4,73.8L7.4,.0L.0,.0L.0,73.8L7.4,73.8z" fill-rule="nonzero" fill-opacity="0.50" transform="translate(103.857270,110.652178)" id="shape12" fill="#595959"/><path d="M7.4,73.8L7.4,.0L.0,.0L.0,73.8L7.4,73.8z" fill-rule="nonzero" fill-opacity="0.50" transform="translate(185.459434,110.652130)" id="shape13" fill="#595959"/><path d="M7.4,73.8L7.4,.0L.0,.0L.0,73.8L7.4,73.8z" fill-rule="nonzero" fill-opacity="0.50" transform="translate(252.224769,258.188592)" id="shape14" fill="#595959"/><path d="M7.4,73.8L7.4,.0L.0,.0L.0,73.8L7.4,73.8z" fill-rule="nonzero" fill-opacity="0.50" transform="translate(333.826962,258.188592)" id="shape15" fill="#595959"/><path d="M7.4,74.2L7.4,.0L.0,.0L.0,74.2L7.4,74.2z" fill-rule="nonzero" fill-opacity="0.50" transform="matrix(0.000000,1.000000,-1.000000,0.000000,185.459434,250.811765)" id="shape16" fill="#595959"/><path d="M7.4,74.2L7.4,.0L.0,.0L.0,74.2L7.4,74.2z" fill-rule="nonzero" fill-opacity="0.50" transform="matrix(0.000000,1.000000,-1.000000,0.000000,185.459211,331.956858)" id="shape17" fill="#595959"/><path d="M7.4,74.2L7.4,.0L.0,.0L.0,74.2L7.4,74.2z" fill-rule="nonzero" fill-opacity="0.50" transform="matrix(0.000000,1.000000,-1.000000,0.000000,333.826962,103.275351)" id="shape18" fill="#595959"/><path d="M7.4,74.2L7.4,.0L.0,.0L.0,74.2L7.4,74.2z" fill-rule="nonzero" fill-opacity="0.50" transform="matrix(0.000000,1.000000,-1.000000,0.000000,333.826962,184.420397)" id="shape19" fill="#595959"/></g></g></svg>